HIERARCHY
ROOT Hips
{
  OFFSET 38.0318 98.8547 2.23354
  CHANNELS 6 Xposition Yposition Zposition Zrotation Xrotation Yrotation
  JOINT spine
  {
    OFFSET 0 8.30104 0.477351
    CHANNELS 3 Zrotation Xrotation Yrotation
    JOINT spine1
    {
      OFFSET 0 10.4565 0
      CHANNELS 3 Zrotation Xrotation Yrotation
      JOINT spine2
      {
        OFFSET 0 10.0192 0
        CHANNELS 3 Zrotation Xrotation Yrotation
        JOINT Neck
        {
          OFFSET 0 25.7235 1.22641
          CHANNELS 3 Zrotation Xrotation Yrotation
          JOINT Head
          {
            OFFSET 0 7.77175 0
            CHANNELS 3 Zrotation Xrotation Yrotation
            End Site
            {
              OFFSET 0 18.812 -6.20394
            }
          }
        }
        JOINT RightShoulder
        {
          OFFSET -4.2188 10.82 -0.587439
          CHANNELS 3 Zrotation Xrotation Yrotation
          JOINT RightArm
          {
            OFFSET 0 14.1914 0
            CHANNELS 3 Zrotation Xrotation Yrotation
            JOINT RightArmRoll
            {
              OFFSET 0 7.16408 0
              CHANNELS 3 Zrotation Xrotation Yrotation
              JOINT RightForeArm
              {
                OFFSET 0 20.8665 0
                CHANNELS 3 Zrotation Xrotation Yrotation
                JOINT RightForeArmRoll
                {
                  OFFSET 0 8.03921 0
                  CHANNELS 3 Zrotation Xrotation Yrotation
                  JOINT RightHand
                  {
                    OFFSET 0 16.133 0
                    CHANNELS 3 Zrotation Xrotation Yrotation
                    End Site
                    {
                      OFFSET 0 0 0
                    }
                  }
                }
              }
            }
          }
        }
        JOINT LeftShoulder
        {
          OFFSET 4.2188 10.82 -0.587439
          CHANNELS 3 Zrotation Xrotation Yrotation
          JOINT LeftArm
          {
            OFFSET 0 14.1914 0
            CHANNELS 3 Zrotation Xrotation Yrotation
            JOINT LeftArmRoll
            {
              OFFSET 0 7.16408 0
              CHANNELS 3 Zrotation Xrotation Yrotation
              JOINT LeftForeArm
              {
                OFFSET 0 20.8665 0
                CHANNELS 3 Zrotation Xrotation Yrotation
                JOINT LeftForeArmRoll
                {
                  OFFSET 0 8.03921 0
                  CHANNELS 3 Zrotation Xrotation Yrotation
                  JOINT LeftHand
                  {
                    OFFSET 0 16.133 0
                    CHANNELS 3 Zrotation Xrotation Yrotation
                    End Site
                    {
                      OFFSET 0 0 0
                    }
                  }
                }
              }
            }
          }
        }
      }
    }
  }
  JOINT RightUpLeg
  {
    OFFSET -7.35773 -1.34921 -1.13182
    CHANNELS 3 Zrotation Xrotation Yrotation
    JOINT RightUpLegRoll
    {
      OFFSET 0 18.9168 0
      CHANNELS 3 Zrotation Xrotation Yrotation
      JOINT RightLeg
      {
        OFFSET 0 -23.4256 0
        CHANNELS 3 Zrotation Xrotation Yrotation
        JOINT RightLegRoll
        {
          OFFSET 0 23.5023 0
          CHANNELS 3 Zrotation Xrotation Yrotation
          JOINT RightFoot
          {
            OFFSET 0 19.5617 0
            CHANNELS 3 Zrotation Xrotation Yrotation
            JOINT RightToeBase
            {
              OFFSET 0 16.3526 0
              CHANNELS 3 Zrotation Xrotation Yrotation
              End Site
              {
                OFFSET 0.00693125 7.91944 -0.912836
              }
            }
          }
        }
      }
    }
  }
  JOINT LeftUpLeg
  {
    OFFSET 7.35773 -1.34921 -1.13182
    CHANNELS 3 Zrotation Xrotation Yrotation
    JOINT LeftUpLegRoll
    {
      OFFSET 0 18.9169 0
      CHANNELS 3 Zrotation Xrotation Yrotation
      JOINT LeftLeg
      {
        OFFSET 0 23.4255 0
        CHANNELS 3 Zrotation Xrotation Yrotation
        JOINT LeftLegRoll
        {
          OFFSET 0 23.7195 0
          CHANNELS 3 Zrotation Xrotation Yrotation
          JOINT LeftFoot
          {
            OFFSET 0 19.3444 0
            CHANNELS 3 Zrotation Xrotation Yrotation
            JOINT LeftToeBase
            {
              OFFSET 0 16.3526 0
              CHANNELS 3 Zrotation Xrotation Yrotation
              End Site
              {
                OFFSET -0.0310629 7.91944 -0.912837
              }
            }
          }
        }
      }
    }
  }
}
MOTION
Frames: 9
Frame Time: 0.00208333
38.4418 98.7277 3.34629 0.298059 -5.16924 -1.70598 0.0503047 -1.39702 0.11793 0.106637 1.20051 0.233789 0.103969 2.84557 0.232074 3.61027 28.8837 -1.50202 -4.6202 -12.2123 -1.01656 76.8397 -0.386176 -2.23863 103.334 33.728 -35.8208 1.7419e-007 2.80046e-006 7.72938e-008 162.492 80.4589 -170.475 1.28356e-005 -9.18995e-007 -3.00138 8.02892 -4.95147 0.697689 -62.983 2.92522 -1.12349 -111.02 30.0788 20.6048 -7.95139e-015 9.54166e-015 6.36111e-015 -32.2131 88.2052 36.2121 3.71013e-006 2.36685e-006 3 -8.02899 -4.95146 -0.697685 175.616 -2.2241 1.58237 180 7.01532e-015 178.86 176.108 6.07213 179.71 4.15996e-007 -3.04926e-006 0.0610483 -18.0474 67.1749 18.8792 8.13649 25.2327 -3.48774 -175.713 -2.81472 -0.0847041 4.54188e-006 -4.6773e-006 -1.24715 -3.89702 -11.5345 0.353575 -2.56707e-006 -4.94933e-006 -0.162299 18.6471 67.8564 -19.4168 -8.14174 25.3107 3.38012 
38.4387 98.7221 3.33989 0.29915 -5.16749 -1.70128 0.0493792 -1.39721 0.118 0.105231 1.19945 0.233165 0.102575 2.84451 0.231465 3.58855 28.887 -1.49713 -4.59519 -12.2008 -1.01456 76.8327 -0.382727 -2.23648 103.45 33.7042 -36.1725 1.7419e-007 2.80046e-006 7.72938e-008 161.652 80.6602 -169.484 1.28356e-005 -9.18995e-007 -3.00138 8.02892 -4.95147 0.697689 -63.0003 2.93467 -1.12615 -111.11 30.0894 20.961 -1.59028e-015 0 -0 -32.9944 88.2773 37.0298 3.71013e-006 2.36685e-006 3 -8.02899 -4.95146 -0.697685 175.616 -2.2206 1.58335 180 7.01532e-015 178.86 176.106 6.07185 179.71 4.15996e-007 -3.04926e-006 0.0610491 -18.0474 67.1749 18.8792 8.13649 25.2327 -3.48774 -175.712 -2.8181 -0.0885057 4.54188e-006 -4.6773e-006 -1.24708 -3.90227 -11.5216 0.352062 -2.56707e-006 -4.94933e-006 -0.162292 18.6425 67.8508 -19.4118 -8.14172 25.3105 3.38048 
38.4379 98.7223 3.33232 0.300283 -5.16549 -1.69696 0.0484846 -1.39747 0.118054 0.103819 1.19835 0.232516 0.101174 2.84341 0.230833 3.56819 28.8908 -1.49254 -4.57268 -12.1896 -1.01284 76.824 -0.379796 -2.23436 103.57 33.6845 -36.5253 1.7419e-007 2.80046e-006 7.72938e-008 160.752 80.866 -168.426 1.28356e-005 -9.18995e-007 -3.00137 8.02892 -4.95147 0.697689 -63.0183 2.94514 -1.12926 -111.197 30.1036 21.3107 3.18055e-015 -3.18055e-015 6.36111e-015 -33.7769 88.3439 37.8466 3.71013e-006 2.36685e-006 3 -8.02899 -4.95146 -0.697685 175.616 -2.21675 1.58439 180 7.01532e-015 178.86 176.104 6.07159 179.71 4.15996e-007 -3.04926e-006 0.0610499 -18.0474 67.1749 18.8792 8.13649 25.2327 -3.48774 -175.711 -2.82048 -0.0912608 4.54188e-006 -4.6773e-006 -1.24702 -3.90648 -11.5099 0.350771 -2.56707e-006 -4.94933e-006 -0.162283 18.6387 67.8462 -19.4077 -8.14168 25.3098 3.38145 
38.4369 98.7225 3.32977 0.301458 -5.16326 -1.69307 0.0476309 -1.39781 0.118082 0.102408 1.19724 0.231836 0.0997745 2.84229 0.230171 3.54946 28.8952 -1.48832 -4.55324 -12.179 -1.01148 76.8132 -0.377456 -2.23228 103.695 33.6698 -36.8783 1.7419e-007 2.80046e-006 7.72937e-008 159.786 81.0765 -167.294 1.28356e-005 -9.18995e-007 -3.00137 8.02892 -4.95147 0.697689 -63.0372 2.95687 -1.13293 -111.279 30.1217 21.6528 -4.77083e-015 1.27222e-014 3.18055e-015 -34.5513 88.4046 38.653 3.71013e-006 2.36685e-006 3 -8.02899 -4.95146 -0.697685 175.616 -2.21255 1.58549 180 7.01532e-015 178.86 176.102 6.07138 179.711 4.15996e-007 -3.04926e-006 0.0610507 -18.0474 67.1749 18.8792 8.13649 25.2327 -3.48774 -175.71 -2.82169 -0.0927688 4.54188e-006 -4.6773e-006 -1.24695 -3.90945 -11.4996 0.349752 -2.56707e-006 -4.94933e-006 -0.16227 18.6359 67.8428 -19.4046 -8.1416 25.3085 3.38318 
38.4382 98.7227 3.32118 0.302675 -5.16078 -1.68965 0.0468285 -1.39823 0.118074 0.101008 1.19612 0.231118 0.0983833 2.84118 0.229472 3.53263 28.9003 -1.48453 -4.53744 -12.1691 -1.01057 76.8003 -0.375779 -2.23026 103.826 33.661 -37.2306 1.7419e-007 2.80046e-006 7.72937e-008 158.747 81.2915 -166.08 1.28356e-005 -9.18995e-007 -3.00136 8.02892 -4.95147 0.697689 -63.057 2.97008 -1.13729 -111.357 30.1441 21.9861 7.95139e-015 6.36111e-015 1.27222e-014 -35.3072 88.4593 39.4382 3.71013e-006 2.36685e-006 3 -8.02899 -4.95146 -0.697685 175.615 -2.20797 1.58666 180 7.01532e-015 178.86 176.1 6.07124 179.711 4.15996e-007 -3.04926e-006 0.0610515 -18.0475 67.1749 18.8792 8.13649 25.2327 -3.48774 -175.71 -2.82158 -0.0928294 4.54188e-006 -4.6773e-006 -1.24688 -3.91097 -11.491 0.349054 -2.56707e-006 -4.94933e-006 -0.16225 18.6341 67.8408 -19.4028 -8.14148 25.3066 3.38584 
38.4357 98.7076 3.31743 0.303932 -5.15806 -1.68675 0.0460875 -1.39872 0.118022 0.0996237 1.19503 0.230356 0.0970085 2.84009 0.22873 3.51797 28.9059 -1.48124 -4.52583 -12.1601 -1.01018 76.7849 -0.374838 -2.22829 103.964 33.659 -37.5811 1.7419e-007 2.80046e-006 7.72938e-008 157.625 81.5108 -164.775 1.28356e-005 -9.18995e-007 -3.00136 8.02892 -4.95147 0.697689 -63.0778 2.98501 -1.14245 -111.428 30.171 22.3093 -1.11319e-014 9.54166e-015 3.18055e-015 -36.0315 88.5075 40.189 3.71013e-006 2.36685e-006 3 -8.02899 -4.95146 -0.697685 175.614 -2.20299 1.58792 180 7.01532e-015 178.86 176.098 6.07117 179.711 4.15996e-007 -3.04926e-006 0.0610522 -18.0475 67.1749 18.8792 8.13649 25.2327 -3.48774 -175.711 -2.81999 -0.0912422 4.54188e-006 -4.6773e-006 -1.24681 -3.91083 -11.4843 0.348729 -2.56707e-006 -4.94933e-006 -0.162223 18.6337 67.8403 -19.4025 -8.1413 25.3039 3.38958 
38.4346 98.7093 3.31755 0.305198 -5.15476 -1.68449 0.0454251 -1.39941 0.117978 0.0982775 1.19376 0.22955 0.0956702 2.83882 0.227946 3.50563 28.9127 -1.47841 -4.51887 -12.1521 -1.01031 76.7661 -0.374872 -2.22639 104.112 33.6613 -37.9372 1.7419e-007 2.80046e-006 7.72937e-008 156.397 81.737 -163.352 1.28356e-005 -9.18995e-007 -3.00136 8.02892 -4.95147 0.697689 -63.0995 3.00131 -1.14823 -111.493 30.2032 22.629 -1.59028e-015 3.18055e-015 9.54166e-015 -36.6924 88.5502 40.8743 3.71013e-006 2.36685e-006 3 -8.02899 -4.95146 -0.697685 175.613 -2.19722 1.58917 180 7.01532e-015 178.86 176.096 6.07117 179.711 4.15996e-007 -3.04926e-006 0.061053 -18.0475 67.1749 18.8792 8.13649 25.2327 -3.48774 -175.712 -2.81641 -0.087877 4.54188e-006 -4.6773e-006 -1.24674 -3.90889 -11.4799 0.348763 -2.56707e-006 -4.94933e-006 -0.162191 18.6348 67.8416 -19.4037 -8.14105 25.3001 3.39471 
38.4333 98.7143 3.31219 0.30645 -5.15061 -1.68288 0.0448421 -1.40036 0.117992 0.096975 1.19214 0.228711 0.0943746 2.8372 0.227129 3.49539 28.9208 -1.47593 -4.51621 -12.1448 -1.01081 76.7435 -0.375972 -2.22453 104.27 33.665 -38.3051 1.7419e-007 2.80046e-006 7.72938e-008 155.036 81.9712 -161.786 1.28356e-005 -9.18995e-007 -3.00135 8.02892 -4.95147 0.697689 -63.1223 3.01847 -1.15432 -111.552 30.2405 22.9515 -1.11319e-014 3.18055e-015 -6.36111e-015 -37.2649 88.5885 41.4699 3.71013e-006 2.36685e-006 3 -8.02899 -4.95146 -0.697685 175.611 -2.19036 1.59037 180 7.01532e-015 178.86 176.094 6.07127 179.712 4.15996e-007 -3.04926e-006 0.0610538 -18.0475 67.1749 18.8792 8.13649 25.2327 -3.48774 -175.714 -2.81067 -0.0828698 4.54188e-006 -4.6773e-006 -1.24666 -3.90529 -11.4776 0.349088 -2.56707e-006 -4.94933e-006 -0.16216 18.6371 67.8444 -19.4063 -8.14074 25.2954 3.40129 
38.432 98.7115 3.31282 0.307702 -5.14575 -1.68186 0.0443241 -1.40153 0.118051 0.0957024 1.19024 0.227841 0.093108 2.8353 0.226283 3.48701 28.9301 -1.47376 -4.51726 -12.1381 -1.01166 76.7175 -0.377987 -2.22272 104.437 33.6701 -38.6828 1.7419e-007 2.80046e-006 7.72937e-008 153.53 82.2105 -160.066 1.28356e-005 -9.18995e-007 -3.00135 8.02892 -4.95147 0.697689 -63.1461 3.03645 -1.16073 -111.605 30.2827 23.275 -1.59028e-014 6.36111e-015 -0 -37.7438 88.6223 41.9705 3.71013e-006 2.36685e-006 3 -8.02899 -4.95146 -0.697685 175.61 -2.18259 1.59153 180 7.01532e-015 178.86 176.092 6.07146 179.712 4.15996e-007 -3.04926e-006 0.0610546 -18.0475 67.1748 18.8791 8.13649 25.2327 -3.48774 -175.716 -2.80309 -0.0764198 4.54188e-006 -4.6773e-006 -1.24658 -3.90023 -11.4771 0.349674 -2.56707e-006 -4.94933e-006 -0.162129 18.6405 67.8486 -19.4101 -8.14036 25.2897 3.40908 
